<?xml version="1.0" encoding="UTF-8" standalone="no"?>
<!-- Created with Inkscape (http://www.inkscape.org/) -->

<svg
   xmlns:dc="http://purl.org/dc/elements/1.1/"
   xmlns:cc="http://creativecommons.org/ns#"
   xmlns:rdf="http://www.w3.org/1999/02/22-rdf-syntax-ns#"
   xmlns:svg="http://www.w3.org/2000/svg"
   xmlns="http://www.w3.org/2000/svg"
   xmlns:sodipodi="http://sodipodi.sourceforge.net/DTD/sodipodi-0.dtd"
   xmlns:inkscape="http://www.inkscape.org/namespaces/inkscape"
   width="210mm"
   height="210mm"
   viewBox="0 0 210 210"
   version="1.1"
   id="svg8"
   inkscape:version="0.92.4 5da689c313, 2019-01-14"
   sodipodi:docname="gear.svg">
  <defs
     id="defs2" />
  <sodipodi:namedview
     id="base"
     pagecolor="#ffffff"
     bordercolor="#666666"
     borderopacity="1.0"
     inkscape:pageopacity="0.0"
     inkscape:pageshadow="2"
     inkscape:zoom="0.22627417"
     inkscape:cx="187.33754"
     inkscape:cy="965.22877"
     inkscape:document-units="mm"
     inkscape:current-layer="layer1"
     showgrid="false"
     inkscape:window-width="1131"
     inkscape:window-height="632"
     inkscape:window-x="2875"
     inkscape:window-y="120"
     inkscape:window-maximized="0" />
  <metadata
     id="metadata5">
    <rdf:RDF>
      <cc:Work
         rdf:about="">
        <dc:format>image/svg+xml</dc:format>
        <dc:type
           rdf:resource="http://purl.org/dc/dcmitype/StillImage" />
        <dc:title></dc:title>
      </cc:Work>
    </rdf:RDF>
  </metadata>
  <g
     inkscape:label="Layer 1"
     inkscape:groupmode="layer"
     id="layer1"
     style="opacity:0.98999999"
     transform="translate(0,-87)">
    <path
       style="fill:#80c3eb;fill-opacity:1;stroke-width:1"
       d="m 91.637852,294.39805 c -2.794621,-1.70409 -3.713048,-4.39144 -6.718435,-19.65696 l -2.461995,-12.50488 -5.290851,-2.11496 -5.291106,-2.11493 -11.682024,7.79599 c -6.425144,4.28779 -12.641063,8.01221 -13.812664,8.27649 -3.874251,0.87377 -6.805296,-0.82099 -14.247742,-8.23801 -3.83593,-3.82275 -7.432738,-7.91653 -7.992992,-9.09733 -2.00572,-4.22672 -1.510357,-5.51712 7.092449,-18.47534 4.461329,-6.71978 8.111275,-12.44949 8.111275,-12.73268 0,-0.88074 -3.835164,-9.65449 -4.468993,-10.22355 -0.330327,-0.29656 -6.467049,-1.69085 -13.637162,-3.09843 -7.170367,-1.40761 -13.9907363,-3.07082 -15.1564606,-3.69604 -3.9151273,-2.09971 -4.5898321,-4.46408 -4.5898321,-16.08313 0,-16.16014 0.3019694,-16.52437 16.3482437,-19.71033 6.064934,-1.20419 12.44589,-2.488 14.179531,-2.85292 l 3.152284,-0.66346 2.173822,-5.39317 2.174077,-5.39317 -7.940874,-11.91667 c -8.474815,-12.71759 -9.476014,-15.20751 -7.575038,-18.83931 1.596964,-3.05104 16.115763,-17.00701 18.250498,-17.54277 3.372246,-0.8464 5.667673,0.2215 17.674908,8.22269 l 11.860855,7.90389 4.630963,-1.86424 c 2.546813,-1.02535 4.982495,-2.08155 5.412201,-2.34711 0.429706,-0.26559 2.044808,-6.79654 3.589143,-14.51321 1.9674,-9.830635 3.213853,-14.546415 4.163958,-15.754523 2.379989,-3.025671 4.913262,-3.588223 16.157919,-3.588223 11.61892,0 13.98333,0.674781 16.08306,4.589883 0.62514,1.165801 2.28853,7.986193 3.69593,15.156413 1.40766,7.17024 2.79667,13.30167 3.08663,13.62541 0.49281,0.55013 7.07124,3.49405 9.49722,4.25015 0.6558,0.20438 5.98471,-2.91048 13.38909,-7.82612 13.04447,-8.66016 14.3272,-9.15416 18.55707,-7.14688 1.1808,0.5603 5.27475,4.15713 9.0974,7.99291 7.41715,7.44237 9.11196,10.37349 8.23799,14.24769 -0.26416,1.17176 -3.97848,7.37237 -8.25408,13.7791 l -7.77354,11.64864 2.09258,5.32319 2.09258,5.32322 12.5049,2.46322 c 21.69504,4.27351 20.94779,3.53376 20.95162,20.74571 0,16.61311 0.70561,15.90842 -19.85819,19.92951 -12.58385,2.46062 -13.48362,2.73579 -14.13253,4.32213 -0.38116,0.93181 -1.39743,3.30998 -2.25812,5.28487 l -1.56503,3.59065 7.54846,11.28001 c 8.3711,12.50922 9.39452,14.68371 8.59055,18.24863 -0.77562,3.43944 -15.56829,18.23213 -19.00772,19.00788 -3.56513,0.804 -5.73946,-0.21971 -18.24871,-8.59062 l -11.28017,-7.5484 -3.59042,1.56496 c -1.97506,0.86071 -4.35326,1.87686 -5.28497,2.2581 -1.58623,0.64903 -1.86163,1.54881 -4.3221,14.13247 -2.8148,14.39536 -3.44403,16.25916 -6.22818,18.44915 -1.66594,1.31038 -2.64823,1.41139 -13.70128,1.40904 -10.530868,-0.002 -12.151846,-0.15175 -14.025998,-1.29463 z m 22.259898,-67.97926 c 6.18143,-1.61007 11.90147,-4.88684 16.42258,-9.40795 17.21788,-17.2178 12.46505,-45.78009 -9.39911,-56.48608 -12.29312,-6.01941 -25.809698,-4.8101 -36.503297,3.26587 -13.946539,10.5326 -18.219839,28.22631 -10.583745,43.82117 4.587533,9.36876 12.622166,16.01779 22.699563,18.78474 4.492759,1.23355 12.673259,1.24403 17.364009,0.023 z"
       id="path1392"
       inkscape:connector-curvature="0" />
  </g>
</svg>
